<?xml version="1.0" encoding="utf-8"?>
<!-- Generator: Adobe Illustrator 19.0.0, SVG Export Plug-In . SVG Version: 6.00 Build 0)  -->
<svg version="1.1" id="OBJECTS" xmlns="http://www.w3.org/2000/svg" xmlns:xlink="http://www.w3.org/1999/xlink" x="0px" y="0px"
	 viewBox="0 0 387 256" style="enable-background:new 0 0 387 256;" xml:space="preserve">
<style type="text/css">
	.st0{opacity:0.22;}
	.st1{fill:#A2DBF1;}
	.st2{opacity:0.3;}
	.st3{fill:#222221;}
	.st4{fill:#B3B3B3;}
	.st5{fill:#3E3E3D;}
	.st6{fill:#6F6F6F;}
	.st7{fill:#FFFFFF;}
	.st8{fill:none;stroke:#425973;stroke-width:3.3;stroke-linecap:round;stroke-linejoin:round;stroke-miterlimit:10;}
	.st9{fill:#DD9AB2;}
	.st10{fill:#D6819F;}
	.st11{fill:none;stroke:#425973;stroke-width:2.75;stroke-linecap:round;stroke-linejoin:round;stroke-miterlimit:10;}
	.st12{fill:#E9C2D0;}
	.st13{fill:#DB9022;}
</style>
<g>
	<g>
		<g class="st0">
			<path class="st1" d="M210,38.6c-39.1,12.5-163.1-49.1-153.4,35c1.5,12.5,9.6,30.2,2.8,41.9c-4.9,8.8-14,13.9-22.7,17.3
				c-22.8,9.3-31.3,26.7-25.5,51.5c15.5,66.9,99.6,51.1,143.7,31.2c31.4-14.8,68.5-17.3,101-4.8c25.5,10.2,41.4,31.5,71.3,25.3
				c26.5-5.3,30.5-30.4,22.8-53.7c-4.4-14.4-7.6-20.5,1.2-34.4c7.4-13.8,20.3-24.3,21.3-40.5c0.2-17.5-7.8-35.2-23.4-41.9
				c-12.8-5.4-24.3-3.2-37-6.6c-28.1-7.9-46.1-51.5-81-36.5c-8.7,4.1-13.6,13.5-23,16.3"/>
		</g>
		<g class="st2">
			<g>
				<g>
					<path class="st1" d="M195.8,32.6c3.5,0,3.5-5.5,0-5.5C192.3,27.1,192.3,32.6,195.8,32.6L195.8,32.6z"/>
				</g>
			</g>
			<g>
				<g>
					<path class="st1" d="M32.9,117.2c7.1,0,7.1-11,0-11C25.8,106.2,25.8,117.2,32.9,117.2L32.9,117.2z"/>
				</g>
			</g>
			<g>
				<g>
					<path class="st1" d="M363.6,161.1c7.1,0,7.1-11,0-11C356.5,150.1,356.5,161.1,363.6,161.1L363.6,161.1z"/>
				</g>
			</g>
			<g>
				<g>
					<path class="st1" d="M177.2,29.9c7.1,0,7.1-11,0-11C170.1,18.9,170.1,29.9,177.2,29.9L177.2,29.9z"/>
				</g>
			</g>
			<g>
				<g>
					<path class="st1" d="M374.6,143.6c9.2,0,9.2-14.3,0-14.3S365.3,143.6,374.6,143.6L374.6,143.6z"/>
				</g>
			</g>
			<g>
				<g>
					<path class="st1" d="M14.3,135.3c9.2,0,9.2-14.3,0-14.3C5.1,121,5.1,135.3,14.3,135.3L14.3,135.3z"/>
				</g>
			</g>
			<g>
				<g>
					<path class="st1" d="M319.6,49.4c9.2,0,9.2-14.3,0-14.3S310.3,49.4,319.6,49.4L319.6,49.4z"/>
				</g>
			</g>
			<g>
				<g>
					<path class="st1" d="M193.1,20.9c10.6,0,10.6-16.5,0-16.5C182.4,4.4,182.4,20.9,193.1,20.9L193.1,20.9z"/>
				</g>
			</g>
			<g>
				<g>
					<path class="st1" d="M380.5,156.5c5.3,0,5.3-8.3,0-8.3C375.1,148.3,375.1,156.5,380.5,156.5L380.5,156.5z"/>
				</g>
			</g>
			<g>
				<g>
					<path class="st1" d="M12.4,112.4c5.3,0,5.3-8.3,0-8.3C7.1,104.1,7.1,112.4,12.4,112.4L12.4,112.4z"/>
				</g>
			</g>
			<g>
				<g>
					<path class="st1" d="M336.7,57.4c5.3,0,5.3-8.3,0-8.3C331.4,49.1,331.4,57.4,336.7,57.4L336.7,57.4z"/>
				</g>
			</g>
			<g>
				<g>
					<path class="st1" d="M335.4,42.3c3.5,0,3.5-5.5,0-5.5S331.8,42.3,335.4,42.3L335.4,42.3z"/>
				</g>
			</g>
			<g>
				<g>
					<path class="st1" d="M56.8,32.8c7.1,0,7.1-11,0-11C49.7,21.8,49.7,32.8,56.8,32.8L56.8,32.8z"/>
				</g>
			</g>
			<g>
				<g>
					<path class="st1" d="M369.7,222.4c7.1,0,7.1-11,0-11C362.6,211.4,362.6,222.4,369.7,222.4L369.7,222.4z"/>
				</g>
			</g>
			<g>
				<g>
					<path class="st1" d="M12.2,227.2c7.1,0,7.1-11,0-11C5.1,216.2,5.1,227.2,12.2,227.2L12.2,227.2z"/>
				</g>
			</g>
			<g>
				<g>
					<path class="st1" d="M73.3,24.5c3.5,0,3.5-5.5,0-5.5C69.7,19,69.7,24.5,73.3,24.5L73.3,24.5z"/>
				</g>
			</g>
			<g>
				<g>
					<path class="st1" d="M370.4,200.4c3.5,0,3.5-5.5,0-5.5S366.9,200.4,370.4,200.4L370.4,200.4z"/>
				</g>
			</g>
			<g>
				<g>
					<path class="st1" d="M28.7,234.1c3.5,0,3.5-5.5,0-5.5S25.2,234.1,28.7,234.1L28.7,234.1z"/>
				</g>
			</g>
		</g>
	</g>
	<g>
		<g>
			<g>
				<g>
					<g>
						<g>
							<path class="st3" d="M107.3,141.5c-3.7,1.3-6.2,1.6-8-2.2c-1.5-2.9-2.4-5.9-4.3-8.6c-4-5.9-7.9-6.2-14.2-5.4
								c-6.3,0.8-15-0.8-15.9-8.1c-0.7-5.2-0.7-10-3-14.9c-1.1-2.4-4.7-0.3-3.6,2.1c2.5,5.4,1.4,11.3,3.3,16.8
								c1.9,5.6,8.2,7.4,13.4,8c4,0.5,7.5-0.5,11.4-0.5c4.2,0,7.1,7.2,8.4,10.4c2.8,6.6,6.7,8.8,13.7,6.3
								C110.8,144.6,109.8,140.6,107.3,141.5L107.3,141.5z"/>
						</g>
					</g>
					<g>
						<g>
							<g>
								<path class="st3" d="M63.7,96.7c-1.2,1.6-2.7,2.6-4.5,3.5c-1.9,1-0.2,3.8,1.7,2.8c2.3-1.2,4.1-2.6,5.7-4.7
									c0.5-0.7,0.1-1.8-0.6-2.3C65.1,95.6,64.2,96,63.7,96.7L63.7,96.7z"/>
							</g>
						</g>
						<g>
							<g>
								<path class="st3" d="M57.8,92.3c0,3.5,0.5,7,0.5,10.5c0,2.1,3.3,2.1,3.3,0c0-3.5-0.5-7-0.5-10.5
									C61.1,90.2,57.8,90.2,57.8,92.3L57.8,92.3z"/>
							</g>
						</g>
						<g>
							<g>
								<path class="st3" d="M52.2,95.7c2.2,2.8,4.5,5.5,7.5,7.4c1.8,1.1,3.5-1.7,1.7-2.8c-2.8-1.7-4.8-4.4-6.8-6.9
									C53.2,91.7,50.9,94,52.2,95.7L52.2,95.7z"/>
							</g>
						</g>
						<g>
							<g>
								<path class="st3" d="M49.4,100.6c3.1,2.9,6.9,3.9,11,2.6c2-0.6,1.2-3.8-0.9-3.2c-2.9,0.9-5.5,0.3-7.7-1.8
									C50.2,96.8,47.9,99.2,49.4,100.6L49.4,100.6z"/>
							</g>
						</g>
					</g>
				</g>
				<g>
					<g>
						<g>
							<path class="st3" d="M276,151.7c0.1-5.4,2-7.2,7.2-7.6c3.4-0.3,6.8-0.2,10.2-0.9c5.1-1,5-8,7-11.6c3-5.5,11.1-5,16.3-6.6
								c5.8-1.8,8-6.7,8.3-12.4c0.2-2.7-4-2.6-4.1,0c-0.5,8.5-6.7,8.7-13.5,10.1c-6,1.2-10.1,4.5-12.1,10.3c-0.7,1.8-0.8,5.6-3,6.2
								c-3.5,0.9-7.5,0.5-11.1,0.9c-6.7,0.7-9.1,5.1-9.2,11.5C271.8,154.4,275.9,154.4,276,151.7L276,151.7z"/>
						</g>
					</g>
					<g>
						<g>
							<g>
								<path class="st3" d="M315.2,107.6c1.4,3.4,3.8,5.8,7.2,7.2c0.8,0.3,1.8-0.4,2-1.2c0.3-1-0.3-1.7-1.2-2
									c-2.2-0.9-4-2.7-4.9-4.9c-0.3-0.8-1.1-1.4-2-1.2C315.6,105.8,314.9,106.8,315.2,107.6L315.2,107.6z"/>
							</g>
						</g>
						<g>
							<g>
								<path class="st3" d="M320.1,103.3c0,2.8,0,5.5,0,8.3c0,2.1,3.3,2.1,3.3,0c0-2.8,0-5.5,0-8.3
									C323.4,101.2,320.1,101.2,320.1,103.3L320.1,103.3z"/>
							</g>
						</g>
						<g>
							<g>
								<path class="st3" d="M325.7,104c-1,2.9-2.7,5.1-5.1,7c-1.6,1.3,0.7,3.7,2.3,2.3c2.8-2.3,4.7-5,5.9-8.4
									C329.5,102.8,326.4,102,325.7,104L325.7,104z"/>
							</g>
						</g>
						<g>
							<g>
								<path class="st3" d="M329.7,107.4c-1.4,2.3-3.7,3.7-6.2,4.7c-1.9,0.8-1.1,4,0.9,3.2c3.3-1.3,6.2-3.2,8.1-6.3
									C333.7,107.3,330.8,105.6,329.7,107.4L329.7,107.4z"/>
							</g>
						</g>
					</g>
				</g>
			</g>
			<g>
				<g>
					<g>
						<path class="st4" d="M295.6,211.5c0,2.9-21.6,3.7-23.9,3.7H110c-2.3,0-23.9-0.8-23.9-3.7l19.7-29.6c0-2.9,1.9-5.2,4.2-5.2
							h161.7c2.3,0,4.2,2.3,4.2,5.2L295.6,211.5z"/>
						<g>
							<g>
								<polygon class="st5" points="157.6,204.9 116.1,204.9 123.3,187.3 160.9,187.3 								"/>
								<polygon class="st5" points="224.1,204.9 265.7,204.9 258.4,187.3 220.8,187.3 								"/>
								<polygon class="st5" points="270.3,204.9 284.9,204.9 272.9,187.3 261.9,187.3 								"/>
								<polygon class="st5" points="111.4,204.9 96.8,204.9 108.8,187.3 119.8,187.3 								"/>
								<polygon class="st5" points="220.4,204.9 161.3,204.9 164.6,187.3 217.1,187.3 								"/>
							</g>
							<g>
								<rect x="100.4" y="190.5" class="st4" width="180.9" height="2.7"/>
								<rect x="98.5" y="197.1" class="st4" width="184.8" height="2.7"/>
							</g>
						</g>
					</g>
					<g>
						<path class="st5" d="M296.7,218.3c0,2.3-0.5,4.2-2.8,4.2H87.8c-2.3,0-2.8-1.9-2.8-4.2v-3.6c0-2.3,0.5-4.2,2.8-4.2h206.1
							c2.3,0,2.8,1.9,2.8,4.2V218.3z"/>
						<path class="st6" d="M229.5,216.6c0,1.2-1,2.2-2.2,2.2h-72.9c-1.2,0-2.2-1-2.2-2.2l0,0c0-1.2,1-2.2,2.2-2.2h72.9
							C228.5,214.4,229.5,215.4,229.5,216.6L229.5,216.6z"/>
					</g>
				</g>
				<g>
					<path class="st5" d="M278,177.9c0,2.3-1.9,4.2-4.2,4.2H107.9c-2.3,0-4.2-1.9-4.2-4.2V69.7c0-2.3,1.9-4.2,4.2-4.2h165.9
						c2.3,0,4.2,1.9,4.2,4.2V177.9z"/>
					<g>
						<g>
							<path class="st7" d="M190.9,71.3c2.3,0,2.3-3.5,0-3.5C188.6,67.8,188.6,71.3,190.9,71.3L190.9,71.3z"/>
						</g>
					</g>
					<g>
						<path class="st7" d="M265.8,171.1c0,2-1.6,3.6-3.6,3.6H119.5c-2,0-3.6-1.6-3.6-3.6V78c0-2,1.6-3.6,3.6-3.6h142.7
							c2,0,3.6,1.6,3.6,3.6V171.1z"/>
						<g>
							<g>
								<g>
									<line class="st8" x1="169" y1="112.1" x2="156.6" y2="124.6"/>
									<line class="st8" x1="169" y1="124.6" x2="156.6" y2="112.1"/>
								</g>
								<g>
									<line class="st8" x1="225.1" y1="112.1" x2="212.7" y2="124.6"/>
									<line class="st8" x1="225.1" y1="124.6" x2="212.7" y2="112.1"/>
								</g>
							</g>
							<g>
								<g>
									<path class="st9" d="M219.5,139.6v12.3c0,2.4-2,4.4-4.4,4.4h-2.4c-2.4,0-4.4-2-4.4-4.4v-12.3"/>
									<g>
										<polygon class="st10" points="215.9,140.2 214,154.5 212,140.2 										"/>
									</g>
								</g>
								<line class="st11" x1="153.6" y1="139.6" x2="228.1" y2="139.6"/>
							</g>
							<g>
								<g>
									<g>
										<path class="st12" d="M141.4,137.8c7.1,0,7.1-11,0-11C134.3,126.8,134.3,137.8,141.4,137.8L141.4,137.8z"/>
									</g>
								</g>
								<g>
									<g>
										<path class="st12" d="M240.4,137.8c7.1,0,7.1-11,0-11C233.3,126.8,233.3,137.8,240.4,137.8L240.4,137.8z"/>
									</g>
								</g>
							</g>
						</g>
					</g>
				</g>
			</g>
		</g>
		<g>
			<g>
				<g>
					<path class="st13" d="M249.7,51.1c0,12.1,0,24.2,0,36.3c0,3.5,5.5,3.5,5.5,0c0-12.1,0-24.2,0-36.3
						C255.2,47.5,249.7,47.5,249.7,51.1L249.7,51.1z"/>
				</g>
			</g>
			<g>
				<g>
					<path class="st13" d="M252.5,101.4c5.3,0,5.3-8.3,0-8.3S247.1,101.4,252.5,101.4L252.5,101.4z"/>
				</g>
			</g>
		</g>
	</g>
</g>
</svg>
