<?xml version="1.0" encoding="utf-8"?>
<!-- Generator: Adobe Illustrator 19.0.0, SVG Export Plug-In . SVG Version: 6.00 Build 0)  -->
<svg version="1.1" id="Livello_1" xmlns="http://www.w3.org/2000/svg" xmlns:xlink="http://www.w3.org/1999/xlink" x="0px" y="0px"
	 viewBox="0 0 512 512" style="enable-background:new 0 0 512 512;" xml:space="preserve">
<style type="text/css">
	.st0{fill:#FFFFFF;}
</style>
<path id="XMLID_22_" class="st0" d="M306,447.5c-2.6-0.1-5.2,0.1-7.6-0.4c-37-7.9-70.9-22.8-102-44.5
	c-18.1-12.6-34.4-27.2-49.2-43.4c-2.2-2.4-6.7-4.1-9.9-3.7c-27.9,3.1-55.7,6.8-83.6,10.3c-5.9,0.7-6.9,2.7-3.2,7.8
	c11.2,15.5,25.3,28.3,40.3,40c25.1,19.6,52.3,35.6,81.4,48.4C197,473,223,477.9,250,476.3c23-1.3,45.9-3.6,68.8-5.4
	c2.9-0.2,5.7,0,9.2,1.3c-1.4,0.9-2.7,2.1-4.2,2.7c-48.4,19.1-98.1,26.3-148.8,11.6c-52.3-15.2-96.8-43.6-131.3-86.2
	c-12-14.9-22.5-31.1-33.4-46.9c-1.3-1.9-2-5.4-1.2-7.4c0.5-1.3,4.4-1.8,6.7-1.6c36.1,2.9,71.7-2,107.4-6.2c5.7-0.7,6.3-2.7,3.1-7.6
	c-24.7-38.8-37.9-81.3-41.3-127c-1.1-14.3-1.2-28.7-1.6-43c0-1.8,0.9-4.3,2.2-5.4c0.8-0.6,3.6,0.3,4.9,1.4
	c23.6,17.8,49.5,31.5,76.5,43.2c36.4,15.9,73.1,30.9,109.6,46.3c2.5,1,5.1,1.7,7.6,2.6c0.4-0.4,0.7-0.9,1.1-1.3
	c-1.4-1.8-2.5-3.9-4.2-5.3c-22.3-19.8-37.7-43.8-43.6-73.2c-7.2-35.5-0.6-68.3,20.8-97.9c17.2-23.9,40.4-39.3,68.2-47.8
	c19.5-6,39.7-6.3,59.7-3.4c21.1,3,42,7.1,61.6,16.1c27.4,12.4,37.3,35.4,31.5,63.8c-1.7,8.5-4.3,17.3,0.7,25.3
	c3.5,5.5,8.6,10.1,13.1,14.9c2.8,2.9,6,5.3,8.9,8.1c0.8,0.8,1.5,2.7,1.1,3.2c-0.7,1-2.5,2.1-3.5,1.9c-4.7-1.1-9.7-1.9-13.8-4.2
	c-23.5-13.2-45.1-28.9-62.4-50c-10.5-12.9-18.2-27.4-24.2-42.8c-2-5.1-5.5-8.4-11.1-9.2c-28.7-3.8-56.5-1.1-82.7,12.1
	c-43,21.6-50,63.7-29.1,102c13.9,25.6,33.7,46.6,56,64.8c32.1,26.1,65.3,50.8,97.5,76.7c22.8,18.3,40.7,40.5,48,69.6
	c5.6,22.1,1.1,42.3-12.8,60.3c-1.1,1.4-3.3,2-5,2.9c-0.5-1.5-1.7-3-1.6-4.5c3.2-37.7-15.8-64.4-43-87c-26.6-22-57.4-36.1-89.4-47.9
	c-30.5-11.2-61.3-21.6-91.6-33.5c-25.5-10.1-50.4-21.7-75.4-33c-11.5-5.2-22.7-11.2-34-16.8c-4.7-2.3-6.7-1-6.5,4.2
	c1.3,36.6,12.8,70.1,32.4,100.7c10.2,15.9,20.8,31.9,33.3,46c19.7,22.2,44.3,39,69.8,54.1c15.2,9,31.2,16.7,46.8,25.1
	c1.8,1,3.5,2.1,5.3,3.1C306.2,446.2,306.1,446.8,306,447.5z"/>
</svg>
